# xmcd
#
# Track frame offsets:
#	150
#	12237
#	22682
#	32460
#	43640
#	58680
#	74477
#	89862
#	101829
#	113839
#
# Disc length: 1699 seconds
#
# Revision: 0
# Processed by: cddbd v1.5.2PL0 Copyright (c) Steve Scherf et al.
# Submitted via: EasyCDDAExtractor 16.0.6.1
#
DISCID=7f06a10a
DTITLE=Various Artist - Οι Μεγάλες Επιτυχίες Του Ελληνικού Κινηματογράφου No 
DTITLE=2
DYEAR=2007
DGENRE=Classic Greek
TTITLE0=Βογιατζής Γιάννης  - Μένουμε Πάντα Παιδιά
TTITLE1=Βουγιουκλάκη Αλίκη  - Όσα Τραγούδια Ξέρω
TTITLE2=Βλαχοπούλου Ρένα  - Γελά Γαλάζιος Ο Ουρανός
TTITLE3=Βογιατζής Γιάννης  - Σ' Αγαπώ Σ' Όλες Τις Γλώσσες
TTITLE4=Βοσκόπουλος Τόλης  - Μ' Έμαθες Ν' Αγαπώ
TTITLE5=Μαρινέλλα - Άνοιξε Πέτρα
TTITLE6=Καλογιάννης Αντώνης  - Άνοιξε Το Παράθυρο
TTITLE7=Ξανθόπουλος Νίκος  - Όλο Το Κρίμα Το 'χεις Εσύ
TTITLE8=Δούκισσα - Πού Πας Χωρίς Αγάπη
TTITLE9=Μοσχολιού Βίκυ  - Εγωιστής Και Πεισματάρης
EXTD=
EXTT0=
EXTT1=
EXTT2=
EXTT3=
EXTT4=
EXTT5=
EXTT6=
EXTT7=
EXTT8=
EXTT9=
PLAYORDER=
